<svg width="58" height="60" viewBox="0 0 58 60" fill="none" xmlns="http://www.w3.org/2000/svg">
<g clip-path="url(#clip0_4_12)">
<path d="M29.2471 19.8139C23.8707 19.8139 19.5342 24.3049 19.5342 29.8727C19.5342 35.4405 23.8707 39.9315 29.2471 39.9315C34.6235 39.9315 38.9601 35.4405 38.9601 29.8727C38.9601 24.3049 34.6235 19.8139 29.2471 19.8139ZM29.2471 36.4122C25.7728 36.4122 22.9324 33.4795 22.9324 29.8727C22.9324 26.2659 25.7643 23.3332 29.2471 23.3332C32.7299 23.3332 35.5618 26.2659 35.5618 29.8727C35.5618 33.4795 32.7215 36.4122 29.2471 36.4122ZM41.6229 19.4025C41.6229 20.7069 40.6085 21.7486 39.3574 21.7486C38.0978 21.7486 37.0919 20.6981 37.0919 19.4025C37.0919 18.1068 38.1063 17.0563 39.3574 17.0563C40.6085 17.0563 41.6229 18.1068 41.6229 19.4025ZM48.0559 21.7837C47.9122 18.6408 47.219 15.857 44.9958 13.5633C42.781 11.2697 40.0928 10.5518 37.058 10.3942C33.9303 10.2104 24.5555 10.2104 21.4277 10.3942C18.4014 10.5431 15.7132 11.2609 13.49 13.5546C11.2667 15.8482 10.582 18.6321 10.4299 21.7749C10.2523 25.014 10.2523 34.7226 10.4299 37.9617C10.5736 41.1045 11.2667 43.8884 13.49 46.1821C15.7132 48.4757 18.393 49.1936 21.4277 49.3512C24.5555 49.535 33.9303 49.535 37.058 49.3512C40.0928 49.2023 42.781 48.4845 44.9958 46.1821C47.2106 43.8884 47.9037 41.1045 48.0559 37.9617C48.2334 34.7226 48.2334 25.0228 48.0559 21.7837ZM44.0152 41.4372C43.3558 43.1531 42.0794 44.475 40.414 45.1666C37.9203 46.1908 32.0029 45.9545 29.2471 45.9545C26.4913 45.9545 20.5655 46.1821 18.0802 45.1666C16.4233 44.4837 15.1468 43.1618 14.479 41.4372C13.49 38.8547 13.7182 32.7266 13.7182 29.8727C13.7182 27.0188 13.4984 20.882 14.479 18.3082C15.1384 16.5923 16.4149 15.2704 18.0802 14.5788C20.5739 13.5546 26.4913 13.7909 29.2471 13.7909C32.0029 13.7909 37.9287 13.5633 40.414 14.5788C42.0709 15.2617 43.3474 16.5836 44.0152 18.3082C45.0042 20.8907 44.776 27.0188 44.776 29.8727C44.776 32.7266 45.0042 38.8634 44.0152 41.4372Z" fill="white"/>
</g>
<defs>
<clipPath id="clip0_4_12">
<rect width="37.8712" height="44.8224" fill="white" transform="translate(10.3032 7.47021)"/>
</clipPath>
</defs>
</svg>
