<svg width="58" height="60" viewBox="0 0 58 60" fill="none" xmlns="http://www.w3.org/2000/svg">
<g clip-path="url(#clip0_4_16)">
<path d="M18.9855 47.3122V22.1109H10.8662V47.3122H18.9855ZM14.9269 18.668C17.7583 18.668 19.5207 16.7328 19.5207 14.3145C19.4679 11.8417 17.7584 9.96021 14.9806 9.96021C12.2033 9.96021 10.3871 11.8417 10.3871 14.3145C10.3871 16.7329 12.1491 18.668 14.8739 18.668H14.9267H14.9269ZM23.4796 47.3122H31.5989V33.2386C31.5989 32.4854 31.6517 31.7329 31.8661 31.1945C32.4531 29.6896 33.789 28.131 36.0319 28.131C38.97 28.131 40.1454 30.4421 40.1454 33.8299V47.312H48.2642V32.8618C48.2642 25.121 44.2586 21.5192 38.9165 21.5192C34.5365 21.5192 32.6133 24.045 31.5449 25.7654H31.5991V22.1104H23.4798C23.5863 24.4751 23.4798 47.3117 23.4798 47.3117L23.4796 47.3122Z" fill="white"/>
</g>
<defs>
<clipPath id="clip0_4_16">
<rect width="37.8712" height="37.352" fill="white" transform="translate(10.3871 9.96021)"/>
</clipPath>
</defs>
</svg>
