<svg width="58" height="60" viewBox="0 0 58 60" fill="none" xmlns="http://www.w3.org/2000/svg">
<g clip-path="url(#clip0_4_20)">
<path d="M50.1652 16.6957C48.5698 17.404 46.8775 17.869 45.1447 18.0751C46.9496 16.9909 48.3355 15.274 48.988 13.2283C47.2723 14.2488 45.3951 14.9678 43.4375 15.3542C41.843 13.6517 39.5715 12.5876 37.0573 12.5876C32.2299 12.5876 28.316 16.5102 28.316 21.3481C28.316 22.0349 28.3934 22.7034 28.5424 23.3448C21.2779 22.9793 14.8372 19.4916 10.5259 14.1913C9.77367 15.4852 9.34262 16.9902 9.34262 18.5956C9.34262 21.635 10.8859 24.3164 13.2312 25.8875C11.8431 25.844 10.4856 25.4682 9.27189 24.7916C9.27139 24.8283 9.27139 24.865 9.27139 24.9019C9.27139 29.1465 12.2844 32.6874 16.2829 33.4922C14.9958 33.8431 13.6456 33.8944 12.3356 33.6424C13.4479 37.1229 16.676 39.6556 20.5008 39.7265C17.5093 42.0761 13.7403 43.4767 9.64519 43.4767C8.93954 43.4767 8.24388 43.4352 7.56003 43.3543C11.4283 45.84 16.0228 47.2904 20.959 47.2904C37.037 47.2904 45.8288 33.9409 45.8288 22.3641C45.8288 21.9842 45.8204 21.6064 45.8035 21.2307C47.5147 19.9908 48.9917 18.4551 50.1652 16.6957Z" fill="white"/>
</g>
<defs>
<clipPath id="clip0_4_20">
<rect width="42.6051" height="34.8619" fill="white" transform="translate(7.56003 12.4504)"/>
</clipPath>
</defs>
</svg>
